<svg xmlns="http://www.w3.org/2000/svg" width="55" height="53" viewBox="0 0 14.552 14.023" xmlns:v="https://vecta.io/nano"><g fill="#0f0"><path d="M.265 6.615h14.023v2.381H.265z"/><path d="M1.852 3.44H12.7v7.144H1.852z"/><path d="M3.44 1.852h7.673v8.731H3.44z"/><path d="M6.615.265h1.323v13.758H6.615z"/><path d="M5.027 1.852h4.498v10.319H5.027z"/></g><g fill="#080"><path d="M6.35 12.171h.265v1.852H6.35z"/><path d="M4.763 12.436v-.265h1.852v.265z"/><path d="M4.763 10.584h.265v1.852h-.265z"/><path d="M1.588 10.848v-.265h3.44v.265z"/><path d="M1.588 8.996h.265v1.852h-.265z"/><path d="M0 9.261v-.265h1.852v.265z"/><path d="M0 6.35h.265v2.91H0z"/><path d="M0 6.615V6.35h1.852v.265z"/><path d="M1.588 3.175h.265v3.44h-.265z"/><path d="M1.588 3.44v-.265H3.44v.265z"/><path d="M3.175 1.588h.265V3.44h-.265z"/><path d="M3.175 1.852v-.265h3.44v.265z"/><path d="M6.35 0h.265v1.852H6.35z"/><path d="M6.35.265V0h1.852v.265z"/><path d="M7.938 0h.265v1.852h-.265z"/><path d="M7.938 1.852v-.265h3.44v.265z"/><path d="M11.113 1.588h.265V3.44h-.265z"/><path d="M11.113 3.44v-.265h1.852v.265z"/><path d="M12.7 3.175h.265v3.44H12.7z"/><path d="M12.7 6.615V6.35h1.852v.265z"/><path d="M14.288 6.35h.265v2.91h-.265z"/><path d="M12.7 9.261v-.265h1.852v.265z"/><path d="M12.7 8.996h.265v1.852H12.7z"/><path d="M9.525 10.848v-.265h3.44v.265z"/><path d="M9.525 10.584h.265v1.852h-.265z"/><path d="M7.938 12.436v-.265H9.79v.265z"/><path d="M7.938 12.171h.265v1.852h-.265z"/></g><path d="M3.44 4.498h2.117v3.175H3.44z"/><g fill="#fff"><path d="M4.763 4.763h.529v.265h-.529z"/><path d="M5.027 4.763h.265v.794h-.265z"/></g><path d="M8.996 4.498h2.117v3.175H8.996z"/><g fill="#fff"><path d="M10.319 4.763h.529v.265h-.529z"/><path d="M10.584 4.763h.265v.794h-.265z"/></g></svg>