<svg xmlns="http://www.w3.org/2000/svg" width="64" height="64" viewBox="0 0 16.933 16.933" xmlns:v="https://vecta.io/nano"><g fill="#0f0"><path d="M1.323 9.525h14.023v2.381H1.323z"/><path d="M2.91 6.35h10.848v7.144H2.91z"/><path d="M4.498 4.762h7.673v8.731H4.498z"/><path d="M7.673 3.175h1.323v13.758H7.673z"/><path d="M6.085 4.762h4.498v10.319H6.085z"/></g><g fill="#080"><path d="M7.408 15.081h.265v1.852h-.265z"/><path d="M5.821 15.346v-.265h1.852v.265z"/><path d="M5.821 13.494h.265v1.852h-.265z"/><path d="M2.646 13.758v-.265h3.44v.265z"/><path d="M2.646 11.906h.265v1.852h-.265z"/><path d="M1.058 12.171v-.265H2.91v.265z"/><path d="M1.058 9.26h.265v2.91h-.265z"/><path d="M1.058 9.525V9.26H2.91v.265z"/><path d="M2.646 6.085h.265v3.44h-.265z"/><path d="M2.646 6.35v-.265h1.852v.265z"/><path d="M4.233 4.498h.265V6.35h-.265z"/><path d="M4.233 4.762v-.265h3.44v.265z"/><path d="M7.408 2.91h.265v1.852h-.265z"/><path d="M7.408 3.175V2.91H9.26v.265z"/><path d="M8.996 2.91h.265v1.852h-.265z"/><path d="M8.996 4.762v-.265h3.44v.265z"/><path d="M12.171 4.498h.265V6.35h-.265z"/><path d="M12.171 6.35v-.265h1.852v.265z"/><path d="M13.758 6.085h.265v3.44h-.265z"/><path d="M13.758 9.525V9.26h1.852v.265z"/><path d="M15.346 9.26h.265v2.91h-.265z"/><path d="M13.758 12.171v-.265h1.852v.265z"/><path d="M13.758 11.906h.265v1.852h-.265z"/><path d="M10.583 13.758v-.265h3.44v.265z"/><path d="M10.583 13.494h.265v1.852h-.265z"/><path d="M8.996 15.346v-.265h1.852v.265z"/><path d="M8.996 15.081h.265v1.852h-.265z"/></g><path d="M4.498 7.409h2.117v3.175H4.498z"/><g fill="#fff"><path d="M5.821 7.673h.529v.265h-.529z"/><path d="M6.085 7.673h.265v.794h-.265z"/></g><path d="M10.054 7.409h2.117v3.175h-2.117z"/><g fill="#fff"><path d="M11.377 7.673h.529v.265h-.529z"/><path d="M11.641 7.673h.265v.794h-.265z"/></g></svg>